<svg id="svg" version="1.1" xmlns="http://www.w3.org/2000/svg" xmlns:xlink="http://www.w3.org/1999/xlink" width="400" height="199.03173749327595" viewBox="0, 0, 400,199.03173749327595"><g id="svgg"><path id="path0" d="M389.348 46.797 C 388.034 47.219,386.819 47.648,386.647 47.752 C 386.476 47.856,384.755 48.441,382.823 49.051 C 380.890 49.661,379.149 50.250,378.953 50.359 C 378.757 50.469,376.984 51.065,375.012 51.685 C 373.041 52.304,371.317 52.901,371.180 53.010 C 371.043 53.120,370.931 53.143,370.931 53.061 C 370.931 52.980,370.819 53.005,370.682 53.117 C 370.545 53.229,368.776 53.835,366.750 54.464 C 364.724 55.093,363.036 55.685,363.000 55.778 C 362.963 55.872,362.832 55.948,362.707 55.948 C 362.355 55.948,355.513 58.190,355.401 58.342 C 355.346 58.416,353.599 58.996,351.518 59.630 C 349.438 60.264,347.680 60.867,347.613 60.971 C 347.546 61.074,347.412 61.163,347.315 61.167 C 347.111 61.177,347.250 61.132,345.047 61.892 C 342.478 62.779,342.361 62.836,341.484 63.643 C 340.075 64.938,340.380 66.426,342.228 67.265 C 343.053 67.639,355.420 67.653,382.642 67.308 L 396.443 67.134 397.176 66.621 C 400.881 64.032,400.949 53.718,397.293 48.916 C 394.877 45.743,393.652 45.417,389.348 46.797 M333.942 69.855 C 333.036 70.223,330.924 72.292,328.984 74.714 C 328.392 75.453,327.820 76.058,327.714 76.058 C 327.607 76.058,327.365 76.312,327.175 76.624 C 326.985 76.935,326.144 77.943,325.306 78.864 C 324.468 79.784,322.558 81.926,321.060 83.624 C 319.563 85.321,317.695 87.413,316.909 88.273 C 316.123 89.132,315.446 89.939,315.404 90.065 C 315.362 90.191,314.914 90.702,314.409 91.200 C 313.903 91.699,312.773 92.945,311.896 93.970 C 311.020 94.994,309.945 96.199,309.507 96.647 C 309.069 97.095,308.571 97.662,308.399 97.908 C 308.228 98.153,307.497 99.005,306.775 99.799 C 304.832 101.937,302.005 105.133,301.387 105.889 C 300.178 107.369,301.428 110.922,303.863 112.928 C 304.339 113.320,304.986 113.882,305.301 114.176 C 306.989 115.753,311.609 116.776,313.491 115.990 C 314.537 115.553,314.810 115.183,316.064 112.494 C 316.703 111.125,317.288 109.960,317.364 109.905 C 317.440 109.851,318.018 108.731,318.648 107.417 C 319.279 106.103,319.904 104.893,320.039 104.729 C 320.173 104.564,320.805 103.310,321.442 101.941 C 322.080 100.572,322.661 99.408,322.733 99.353 C 322.805 99.298,323.388 98.178,324.028 96.864 C 324.668 95.550,325.296 94.340,325.424 94.176 C 325.552 94.012,326.137 92.847,326.724 91.588 C 327.310 90.329,327.857 89.253,327.938 89.198 C 328.019 89.144,328.681 87.889,329.409 86.411 C 330.136 84.933,330.887 83.454,331.078 83.126 C 331.268 82.797,331.813 81.677,332.290 80.637 C 332.766 79.597,333.225 78.701,333.309 78.646 C 333.465 78.544,335.287 74.872,335.959 73.305 C 337.171 70.482,336.255 68.916,333.942 69.855 M86.909 114.694 C 84.281 114.768,81.346 114.841,80.388 114.856 L 78.646 114.883 78.646 146.618 L 78.646 178.353 82.977 178.523 C 95.273 179.004,111.258 178.625,112.860 177.813 C 113.042 177.721,114.342 177.367,115.748 177.028 C 117.940 176.500,120.522 175.584,120.856 175.218 C 121.068 174.985,122.649 174.017,122.817 174.017 C 123.745 174.017,127.715 168.919,128.688 166.478 C 130.329 162.361,129.984 152.124,128.141 150.269 C 128.008 150.135,127.591 149.443,127.215 148.731 C 126.298 146.997,123.922 144.619,122.376 143.890 C 121.066 143.271,121.091 143.061,122.587 142.136 C 124.114 141.193,126.385 137.603,126.923 135.284 C 127.837 131.345,127.033 125.331,125.360 123.586 C 125.232 123.454,124.704 122.746,124.186 122.014 C 123.668 121.282,122.953 120.479,122.598 120.230 C 122.242 119.980,121.727 119.543,121.453 119.258 C 120.717 118.491,116.415 116.396,114.584 115.913 C 109.483 114.567,102.418 114.256,86.909 114.694 M4.775 115.130 C 4.772 115.268,4.685 115.972,4.580 116.695 C 4.314 118.539,3.253 129.097,2.962 132.802 C 2.829 134.500,2.661 135.933,2.589 135.988 C 2.356 136.166,1.255 152.720,0.609 165.754 C 0.392 170.134,0.161 174.771,0.095 176.058 L -0.024 178.397 7.454 178.397 L 14.933 178.397 14.937 176.954 C 14.939 176.160,15.069 171.837,15.227 167.347 C 15.385 162.857,15.569 157.481,15.636 155.401 C 15.703 153.320,15.832 151.439,15.922 151.220 C 16.013 151.000,16.191 148.597,16.318 145.879 C 16.594 139.980,16.610 139.916,17.353 141.798 C 17.669 142.600,18.236 143.883,18.613 144.649 C 18.990 145.416,19.714 147.118,20.223 148.432 C 20.732 149.746,21.208 150.866,21.282 150.921 C 21.355 150.976,21.946 152.364,22.596 154.007 C 23.245 155.650,23.833 157.038,23.901 157.093 C 23.969 157.148,24.491 158.402,25.061 159.881 C 25.631 161.359,26.268 162.904,26.478 163.315 C 26.821 163.988,27.371 165.339,28.764 168.940 L 29.226 170.134 34.775 170.187 L 40.324 170.240 40.901 168.694 C 41.843 166.170,42.403 164.801,42.797 164.062 C 43.001 163.678,43.582 162.255,44.088 160.898 C 44.594 159.541,45.140 158.197,45.301 157.911 C 45.686 157.227,46.989 154.122,46.989 153.889 C 46.989 153.789,47.381 152.878,47.861 151.866 C 48.341 150.853,49.120 149.039,49.594 147.835 C 50.067 146.630,50.516 145.600,50.592 145.545 C 50.668 145.490,51.210 144.237,51.796 142.759 L 52.862 140.073 53.084 142.759 C 53.206 144.237,53.273 145.505,53.232 145.578 C 53.192 145.651,53.235 145.740,53.330 145.777 C 53.509 145.847,54.007 157.271,54.366 169.537 C 54.481 173.479,54.621 177.087,54.677 177.553 L 54.779 178.402 62.183 178.350 L 69.587 178.298 69.528 174.614 C 69.496 172.588,69.392 170.752,69.298 170.533 C 69.204 170.314,69.024 167.805,68.897 164.958 C 68.433 154.507,66.973 133.210,66.707 133.001 C 66.637 132.947,66.425 131.110,66.235 128.920 C 65.861 124.598,64.958 116.054,64.800 115.331 L 64.701 114.883 57.166 114.883 L 49.630 114.883 49.006 116.279 C 48.663 117.046,48.382 117.756,48.382 117.857 C 48.382 117.958,48.269 118.159,48.130 118.303 C 47.847 118.599,45.993 122.497,45.993 122.797 C 45.993 122.904,45.786 123.295,45.534 123.668 C 45.281 124.040,44.732 125.150,44.313 126.135 C 43.895 127.119,43.081 128.910,42.504 130.114 C 41.927 131.319,41.156 133.021,40.789 133.897 C 40.423 134.774,40.063 135.535,39.990 135.591 C 39.916 135.646,39.294 137.079,38.606 138.776 C 37.918 140.473,37.301 141.906,37.235 141.961 C 37.118 142.058,35.749 145.477,35.221 146.991 C 34.867 148.009,34.667 147.864,34.026 146.131 C 32.840 142.922,32.263 141.491,32.113 141.380 C 32.027 141.317,31.562 140.279,31.081 139.074 C 30.599 137.870,29.828 136.122,29.366 135.192 C 28.905 134.261,28.460 133.275,28.378 133.001 C 28.296 132.728,27.755 131.518,27.174 130.314 C 25.692 127.236,24.291 124.095,24.291 123.850 C 24.291 123.737,24.213 123.644,24.117 123.644 C 24.022 123.644,23.479 122.546,22.910 121.205 C 22.342 119.863,21.694 118.510,21.470 118.198 C 21.247 117.887,20.820 117.035,20.521 116.307 L 19.979 114.983 12.379 114.930 C 6.367 114.889,4.778 114.931,4.775 115.130 M106.222 127.026 C 106.770 127.136,107.397 127.309,107.616 127.411 C 107.835 127.514,108.575 127.841,109.261 128.138 C 113.662 130.044,113.958 134.732,109.876 137.889 C 108.410 139.023,98.467 139.818,94.724 139.100 L 93.977 138.957 93.977 132.996 L 93.977 127.036 94.425 126.934 C 95.847 126.612,104.483 126.679,106.222 127.026 M160.327 131.617 C 155.841 131.984,152.425 133.395,149.695 136.006 C 147.390 138.211,147.287 138.478,148.369 139.426 C 148.842 139.840,149.766 140.704,150.423 141.345 C 152.101 142.983,152.353 143.024,153.422 141.832 C 153.898 141.301,154.292 140.809,154.297 140.740 C 154.424 138.939,165.744 136.544,167.515 137.944 C 167.642 138.044,168.103 138.191,168.540 138.270 C 170.311 138.590,173.041 140.074,173.542 140.989 C 175.061 143.764,175.201 144.349,175.355 148.581 L 175.470 151.717 167.819 151.717 C 156.294 151.717,154.019 152.147,150.242 155.040 C 144.580 159.376,144.233 169.754,149.578 174.862 C 150.944 176.167,151.457 176.477,154.604 177.899 C 157.072 179.015,167.419 179.012,169.637 177.896 C 169.910 177.758,170.851 177.306,171.727 176.891 C 172.672 176.443,173.744 175.735,174.365 175.148 L 175.411 174.158 175.411 176.278 L 175.411 178.397 179.004 178.397 L 182.597 178.397 182.526 161.125 C 182.445 141.583,182.520 142.556,180.840 139.208 C 179.903 137.341,179.058 136.308,177.339 134.925 C 176.612 134.341,175.876 133.968,172.897 132.679 C 170.648 131.705,165.035 131.231,160.327 131.617 M200.900 131.620 C 196.253 132.198,191.837 134.884,190.066 138.211 C 188.593 140.980,188.322 141.631,187.876 143.472 C 186.283 150.048,186.236 159.143,187.762 165.651 C 189.167 171.648,192.794 175.817,197.810 177.202 C 198.686 177.444,199.618 177.745,199.881 177.870 C 200.527 178.178,207.100 178.183,207.486 177.876 C 207.639 177.753,208.102 177.592,208.515 177.518 C 210.710 177.122,212.997 175.825,214.969 173.857 L 216.227 172.601 216.227 176.694 C 216.227 178.945,216.157 180.786,216.071 180.786 C 215.986 180.786,215.896 181.033,215.871 181.334 C 215.280 188.609,210.679 192.959,203.612 192.925 C 201.120 192.913,197.631 192.070,196.672 191.249 C 196.454 191.062,195.815 190.602,195.251 190.225 C 194.687 189.849,193.890 189.283,193.480 188.968 L 192.734 188.396 191.615 189.420 C 188.716 192.072,188.103 192.713,188.207 192.985 C 188.358 193.378,191.186 195.628,192.036 196.031 C 192.419 196.213,192.733 196.427,192.733 196.506 C 192.733 196.711,194.600 197.598,196.084 198.098 C 200.268 199.506,207.783 199.390,211.958 197.853 C 213.251 197.377,214.593 196.735,214.666 196.557 C 214.703 196.467,215.182 196.095,215.729 195.732 C 218.896 193.629,221.594 189.457,222.627 185.067 L 223.096 183.076 223.152 157.541 L 223.209 132.006 219.718 132.006 L 216.227 132.006 216.227 134.412 C 216.227 137.054,216.204 137.083,215.129 135.790 C 212.466 132.587,206.706 130.899,200.900 131.620 M243.106 131.701 C 240.394 132.151,236.817 133.720,235.492 135.042 C 235.080 135.453,234.687 135.789,234.618 135.789 C 234.409 135.789,232.554 137.859,232.554 138.092 C 232.554 138.211,232.321 138.525,232.036 138.791 C 231.484 139.305,230.614 140.899,229.953 142.609 C 229.731 143.183,229.407 143.960,229.234 144.335 C 228.012 146.977,227.396 154.804,227.984 160.237 C 228.217 162.393,229.117 166.451,229.362 166.451 C 229.449 166.451,229.622 166.832,229.746 167.297 C 230.820 171.311,235.467 176.065,239.522 177.298 C 239.796 177.381,240.395 177.617,240.854 177.823 C 243.603 179.056,254.589 179.042,255.450 177.805 C 255.505 177.726,255.819 177.599,256.147 177.523 C 256.957 177.334,260.428 175.615,260.428 175.402 C 260.428 175.309,260.898 174.917,261.473 174.530 C 262.433 173.885,265.278 171.094,267.023 169.084 L 267.745 168.253 267.988 169.492 C 268.747 173.359,272.321 177.601,274.820 177.601 C 274.990 177.601,275.158 177.684,275.195 177.785 C 275.630 178.996,290.493 178.997,290.493 177.786 C 290.493 177.684,290.635 177.601,290.810 177.601 C 291.430 177.601,294.322 175.909,295.135 175.070 C 296.251 173.919,296.267 173.935,296.267 176.186 C 296.267 178.574,295.963 178.397,300.066 178.397 L 303.235 178.397 303.235 162.016 C 303.235 143.005,303.040 140.539,301.386 138.683 C 301.144 138.412,300.722 137.821,300.448 137.370 C 299.442 135.712,296.439 133.642,293.678 132.702 C 293.624 132.684,293.444 132.611,293.280 132.540 C 290.090 131.169,277.027 131.250,276.135 132.646 C 276.068 132.751,275.959 132.836,275.892 132.835 C 274.319 132.810,268.834 136.843,268.471 138.291 C 268.349 138.777,268.885 139.576,269.330 139.570 C 269.416 139.569,269.980 140.085,270.582 140.717 C 271.594 141.779,272.790 142.758,273.075 142.758 C 273.141 142.758,273.855 142.095,274.663 141.285 C 276.163 139.779,277.654 138.892,279.547 138.377 C 280.037 138.243,280.653 138.032,280.916 137.907 C 281.558 137.603,288.135 137.597,288.521 137.901 C 288.675 138.022,289.237 138.227,289.771 138.358 C 290.671 138.577,291.735 139.071,293.170 139.936 C 294.974 141.023,295.992 144.193,296.197 149.360 L 296.290 151.682 287.567 151.771 C 277.579 151.873,274.722 152.263,272.966 153.766 C 272.757 153.946,272.247 154.267,271.833 154.480 C 270.359 155.239,265.843 159.641,264.658 161.473 C 264.481 161.747,264.192 162.106,264.016 162.270 C 263.468 162.780,262.220 164.417,262.220 164.625 C 262.220 164.734,261.974 165.034,261.672 165.292 C 261.371 165.550,260.642 166.324,260.052 167.011 C 259.462 167.699,258.745 168.389,258.459 168.544 C 258.173 168.700,257.584 169.152,257.150 169.549 C 253.673 172.730,246.091 173.318,241.314 170.779 C 237.490 168.746,234.948 163.701,234.944 158.138 L 234.943 157.093 250.274 157.093 L 265.605 157.093 265.601 153.858 C 265.596 148.983,264.981 145.356,263.694 142.600 C 262.222 139.447,262.012 139.056,261.377 138.278 C 256.987 132.900,250.330 130.503,243.106 131.701 M321.473 131.633 C 319.517 131.821,317.344 132.305,316.575 132.724 C 316.302 132.873,315.401 133.297,314.573 133.666 C 312.853 134.434,310.510 136.334,309.909 137.448 C 309.693 137.850,309.449 138.178,309.366 138.178 C 308.843 138.178,307.715 141.658,307.526 143.853 C 307.003 149.923,309.848 154.643,314.983 156.224 C 315.585 156.409,316.179 156.638,316.303 156.733 C 316.763 157.082,319.603 157.475,324.639 157.887 C 332.362 158.517,334.822 159.420,335.599 161.908 C 335.678 162.162,335.843 162.433,335.965 162.511 C 337.013 163.182,335.899 167.861,334.280 169.591 C 330.814 173.294,317.457 173.379,313.270 169.724 C 312.843 169.352,312.417 169.045,312.322 169.043 C 312.228 169.041,311.723 168.681,311.200 168.243 C 309.951 167.197,310.134 167.127,307.582 169.634 C 305.184 171.991,305.036 172.387,306.304 173.065 C 306.521 173.182,307.197 173.667,307.805 174.145 C 308.413 174.622,309.022 175.012,309.159 175.012 C 309.296 175.012,309.408 175.088,309.408 175.180 C 309.408 175.481,311.324 176.399,313.223 177.009 C 314.246 177.338,315.237 177.694,315.427 177.802 C 317.482 178.969,332.305 178.971,332.305 177.804 C 332.305 177.716,332.619 177.586,333.002 177.514 C 333.797 177.365,336.239 176.358,337.043 175.848 C 337.987 175.249,340.667 172.845,340.667 172.598 C 340.667 172.504,340.972 172.028,341.344 171.541 C 343.798 168.326,343.703 159.700,341.186 157.169 C 340.955 156.937,340.489 156.399,340.150 155.974 C 339.811 155.549,339.273 155.069,338.955 154.906 C 338.637 154.743,337.946 154.351,337.419 154.035 C 335.405 152.826,332.764 152.302,326.132 151.795 C 323.668 151.606,321.608 151.391,321.553 151.317 C 321.498 151.242,321.032 151.125,320.517 151.056 C 317.474 150.650,314.783 148.673,314.783 146.843 C 314.783 146.677,314.694 146.541,314.584 146.541 C 314.470 146.541,314.385 145.920,314.385 145.078 C 314.385 141.817,316.634 139.037,319.905 138.255 C 320.209 138.183,320.584 138.024,320.738 137.902 C 321.128 137.593,328.483 137.596,328.678 137.905 C 328.756 138.028,329.217 138.196,329.703 138.277 C 331.320 138.548,333.979 139.595,335.335 140.497 L 336.677 141.389 338.871 139.169 C 341.383 136.628,341.351 136.710,340.194 135.742 C 336.572 132.715,328.545 130.953,321.473 131.633 M249.725 138.007 C 251.499 138.614,253.481 139.641,254.166 140.307 C 256.903 142.970,257.958 145.434,258.350 150.075 L 258.488 151.717 246.692 151.717 L 234.896 151.717 235.036 150.174 C 235.378 146.419,236.297 143.520,237.595 142.103 C 239.339 140.199,239.771 139.771,239.945 139.771 C 240.046 139.771,240.462 139.555,240.870 139.291 C 241.279 139.026,242.106 138.646,242.708 138.444 C 243.310 138.243,243.848 138.020,243.902 137.949 C 244.291 137.445,248.195 137.483,249.725 138.007 M206.710 137.955 C 206.962 138.051,207.616 138.234,208.163 138.363 C 209.632 138.708,211.548 139.702,212.185 140.449 C 212.491 140.810,213.026 141.442,213.372 141.855 C 214.875 143.649,215.980 148.664,216.169 154.555 C 216.238 156.691,216.201 157.491,216.034 157.491 C 215.908 157.491,215.851 157.565,215.907 157.655 C 216.289 158.274,215.045 164.432,214.150 166.347 C 210.449 174.268,197.579 173.128,195.104 164.659 C 194.960 164.166,194.778 163.717,194.698 163.661 C 193.562 162.856,193.570 146.561,194.707 145.744 C 194.783 145.689,195.052 145.062,195.303 144.350 C 196.489 141.000,198.740 138.991,202.071 138.312 C 202.726 138.178,203.327 138.004,203.406 137.924 C 203.610 137.721,206.159 137.744,206.710 137.955 M106.656 150.938 C 107.512 151.057,108.303 151.225,108.412 151.310 C 108.522 151.396,109.059 151.619,109.607 151.807 C 115.118 153.696,115.732 160.781,110.646 163.806 C 107.930 165.420,105.288 165.787,98.109 165.547 L 93.977 165.409 93.977 158.268 L 93.977 151.128 94.425 151.026 C 95.811 150.714,104.584 150.650,106.656 150.938 M175.352 160.873 C 175.063 169.929,172.422 172.458,163.265 172.445 C 155.505 172.434,151.989 169.496,152.910 163.788 C 153.824 158.116,156.072 157.174,168.822 157.121 L 175.473 157.093 175.352 160.873 M296.222 160.152 C 296.257 162.012,296.200 163.206,296.068 163.364 C 295.953 163.503,295.872 163.874,295.888 164.188 C 296.013 166.626,294.296 169.588,291.966 170.953 C 288.787 172.816,281.081 173.034,277.320 171.368 C 271.771 168.910,272.317 160.138,278.151 158.016 C 280.201 157.271,281.955 157.141,289.597 157.169 L 296.167 157.193 296.222 160.152 " stroke="none" fill="#141cd4" fill-rule="evenodd"></path><path id="path1" d="M319.662 0.293 C 316.951 0.794,314.723 1.723,313.193 2.991 C 312.699 3.400,312.097 3.837,311.856 3.960 C 310.967 4.416,309.437 7.181,309.416 8.369 C 309.402 9.188,311.493 14.385,311.976 14.734 C 312.052 14.788,312.303 15.281,312.533 15.829 C 313.326 17.716,314.479 20.209,314.605 20.309 C 314.774 20.443,316.112 23.339,316.606 24.639 C 316.824 25.214,317.108 25.797,317.237 25.933 C 317.464 26.175,318.554 28.464,319.288 30.243 C 319.486 30.725,319.741 31.217,319.854 31.338 C 319.967 31.459,320.316 32.140,320.629 32.852 C 320.941 33.564,321.718 35.222,322.355 36.536 C 324.377 40.710,326.058 44.242,326.949 46.192 C 327.424 47.232,327.864 48.128,327.926 48.183 C 327.989 48.238,328.296 48.865,328.609 49.577 C 328.921 50.289,329.871 52.305,330.718 54.057 C 331.565 55.809,332.468 57.735,332.723 58.337 C 332.978 58.940,333.264 59.522,333.357 59.632 C 333.450 59.741,333.874 60.386,334.298 61.065 C 336.810 65.084,339.889 63.251,339.285 58.097 C 338.960 55.319,338.820 54.459,338.676 54.355 C 338.600 54.301,338.293 52.688,337.995 50.772 C 336.516 41.272,336.253 39.691,336.089 39.323 C 335.992 39.104,335.732 37.760,335.511 36.336 C 334.048 26.917,333.456 23.345,333.297 22.997 C 333.198 22.778,332.616 19.373,332.005 15.431 C 331.394 11.488,330.812 8.084,330.712 7.865 C 330.612 7.646,330.348 6.348,330.127 4.980 C 329.660 2.105,329.444 1.711,327.915 0.959 C 325.981 0.006,322.664 -0.261,319.662 0.293 M339.734 69.688 C 338.370 70.238,338.568 72.849,340.267 76.705 C 340.737 77.773,341.188 78.646,341.270 78.646 C 341.351 78.646,341.624 79.161,341.876 79.791 C 342.616 81.635,343.863 84.303,344.038 84.416 C 344.126 84.473,344.672 85.624,345.250 86.974 C 345.828 88.324,346.403 89.534,346.528 89.662 C 346.653 89.790,347.275 91.078,347.912 92.524 C 348.549 93.969,349.134 95.179,349.213 95.212 C 349.293 95.244,349.697 96.078,350.113 97.063 C 350.529 98.049,351.298 99.706,351.822 100.747 C 353.227 103.534,355.460 108.171,356.328 110.105 C 356.746 111.035,357.182 111.896,357.296 112.017 C 357.411 112.137,357.672 112.630,357.877 113.112 C 358.905 115.528,359.879 117.595,360.085 117.803 C 360.212 117.930,360.432 118.334,360.573 118.699 C 361.123 120.120,362.454 122.958,362.674 123.179 C 362.800 123.306,363.018 123.709,363.156 124.075 C 363.735 125.604,365.248 128.820,365.388 128.820 C 365.471 128.820,365.646 129.176,365.776 129.611 C 366.243 131.170,367.297 131.811,369.636 131.956 C 372.163 132.114,376.540 131.005,377.609 129.936 C 377.792 129.753,378.305 129.418,378.750 129.191 C 382.877 127.085,385.772 120.672,383.638 118.363 C 383.235 117.927,382.618 117.174,382.267 116.689 C 381.916 116.204,381.368 115.589,381.051 115.321 C 380.733 115.054,380.349 114.596,380.198 114.302 C 380.046 114.009,379.534 113.370,379.061 112.882 C 378.587 112.395,377.899 111.593,377.531 111.100 C 377.163 110.607,376.606 109.935,376.292 109.607 C 375.979 109.278,374.639 107.710,373.315 106.122 C 371.991 104.535,370.488 102.758,369.974 102.175 C 369.460 101.591,368.957 100.967,368.855 100.787 C 368.754 100.607,368.194 99.971,367.611 99.373 C 367.028 98.776,366.551 98.186,366.551 98.063 C 366.551 97.940,366.137 97.445,365.632 96.964 C 365.127 96.483,364.510 95.771,364.259 95.382 C 364.009 94.992,363.460 94.316,363.038 93.878 C 362.617 93.440,362.132 92.881,361.960 92.636 C 361.788 92.391,361.235 91.719,360.731 91.142 C 360.227 90.566,359.439 89.647,358.980 89.099 C 358.521 88.552,357.685 87.572,357.122 86.923 C 356.559 86.273,355.790 85.332,355.413 84.832 C 355.036 84.332,354.619 83.856,354.486 83.774 C 354.354 83.693,353.780 82.998,353.211 82.231 C 352.643 81.464,352.104 80.836,352.015 80.836 C 351.925 80.836,351.439 80.258,350.934 79.551 C 350.430 78.843,349.846 78.145,349.637 77.998 C 349.427 77.852,348.861 77.199,348.377 76.546 C 347.894 75.894,347.278 75.137,347.010 74.863 C 346.741 74.589,345.972 73.693,345.300 72.872 C 343.163 70.259,341.160 69.113,339.734 69.688 " stroke="none" fill="#d81b4d" fill-rule="evenodd"></path><path id="path2" d="M368.940 19.020 C 368.666 19.179,368.193 19.646,367.888 20.058 C 366.626 21.762,364.855 24.296,363.817 25.884 C 363.208 26.814,362.636 27.605,362.547 27.640 C 362.457 27.675,362.184 28.033,361.939 28.436 C 361.695 28.839,361.131 29.654,360.688 30.248 C 359.804 31.428,357.896 34.139,355.980 36.934 C 355.304 37.919,354.692 38.771,354.620 38.825 C 354.350 39.031,352.215 42.206,352.215 42.403 C 352.215 42.516,352.133 42.608,352.034 42.608 C 351.934 42.608,351.296 43.437,350.615 44.450 C 349.935 45.463,349.252 46.426,349.098 46.590 C 348.782 46.927,346.510 50.154,345.104 52.265 C 344.593 53.031,344.066 53.748,343.933 53.858 C 342.409 55.111,341.240 58.712,342.085 59.556 C 342.763 60.234,346.242 59.216,346.242 58.340 C 346.242 58.251,346.505 58.011,346.827 57.807 C 347.149 57.603,347.933 56.977,348.569 56.416 C 349.206 55.855,350.757 54.528,352.016 53.468 C 353.275 52.408,354.839 51.077,355.492 50.509 C 356.144 49.942,356.995 49.241,357.383 48.953 C 357.771 48.664,358.411 48.126,358.804 47.758 C 359.198 47.390,359.982 46.731,360.546 46.296 C 361.111 45.860,361.573 45.437,361.573 45.357 C 361.573 45.277,361.890 44.995,362.278 44.732 C 362.666 44.468,363.709 43.636,364.596 42.883 C 365.483 42.130,367.248 40.638,368.520 39.569 C 369.791 38.499,371.055 37.413,371.329 37.155 C 371.603 36.896,372.364 36.258,373.021 35.735 C 373.678 35.213,374.440 34.563,374.714 34.291 C 374.988 34.019,375.525 33.565,375.908 33.283 C 376.292 33.000,377.118 32.318,377.744 31.765 C 378.371 31.213,379.222 30.477,379.636 30.129 L 380.388 29.497 380.382 27.939 C 380.361 22.737,372.756 16.808,368.940 19.020 M326.929 69.299 C 326.108 69.612,324.360 70.249,323.046 70.716 C 321.732 71.183,320.611 71.628,320.555 71.706 C 320.499 71.784,319.647 72.116,318.663 72.445 C 316.349 73.219,314.140 74.058,313.888 74.259 C 313.778 74.346,313.016 74.647,312.195 74.927 C 309.395 75.881,306.898 76.802,306.510 77.022 C 306.297 77.143,305.786 77.375,305.375 77.536 C 304.435 77.906,304.162 78.558,304.288 80.139 C 304.456 82.252,305.233 83.551,307.236 85.067 C 307.835 85.520,308.832 85.511,309.431 85.048 C 309.692 84.845,310.667 84.160,311.598 83.524 C 312.529 82.888,313.335 82.305,313.390 82.229 C 313.444 82.153,314.273 81.576,315.231 80.947 C 316.190 80.319,316.974 79.737,316.974 79.655 C 316.974 79.573,317.196 79.405,317.468 79.281 C 317.740 79.157,318.932 78.348,320.116 77.483 C 321.301 76.618,322.534 75.773,322.857 75.606 C 323.180 75.438,323.861 74.934,324.371 74.485 C 324.881 74.036,325.360 73.668,325.436 73.668 C 326.180 73.668,329.915 70.444,329.915 69.802 C 329.915 68.631,329.061 68.487,326.929 69.299 " stroke="none" fill="#ec84ac" fill-rule="evenodd"></path><path id="path3" d="M284.217 49.153 C 282.564 49.904,280.562 52.974,280.191 55.328 C 280.129 55.724,279.993 56.103,279.890 56.171 C 279.615 56.352,279.609 60.598,279.883 61.157 C 280.008 61.413,280.257 62.088,280.436 62.657 C 281.353 65.572,280.717 65.417,293.479 65.827 C 299.447 66.019,304.375 66.232,304.430 66.301 C 304.670 66.602,332.396 67.350,333.574 67.086 C 336.162 66.507,335.861 64.047,333.070 62.963 C 331.938 62.524,328.466 61.524,328.065 61.522 C 327.933 61.521,327.589 61.397,327.300 61.247 C 327.011 61.096,325.757 60.684,324.512 60.331 C 323.268 59.979,321.847 59.575,321.354 59.436 C 320.861 59.296,319.876 59.021,319.164 58.824 C 318.452 58.628,317.777 58.398,317.663 58.313 C 317.549 58.229,316.429 57.878,315.174 57.533 C 313.919 57.189,312.444 56.781,311.896 56.627 C 311.349 56.473,310.475 56.242,309.955 56.114 C 309.435 55.985,309.009 55.815,309.009 55.737 C 309.009 55.658,308.763 55.536,308.462 55.465 C 306.696 55.052,301.656 53.614,298.756 52.694 C 297.551 52.312,295.356 51.668,293.878 51.263 C 292.399 50.857,291.100 50.456,290.991 50.370 C 290.755 50.185,285.701 48.779,285.297 48.785 C 285.143 48.787,284.657 48.953,284.217 49.153 M347.785 70.597 C 347.208 71.183,348.256 73.668,349.080 73.668 C 349.194 73.668,349.576 73.966,349.929 74.329 C 350.282 74.692,351.052 75.310,351.642 75.702 C 352.231 76.093,352.941 76.625,353.221 76.883 C 353.501 77.141,354.396 77.863,355.212 78.487 C 356.028 79.111,357.546 80.302,358.586 81.132 C 359.627 81.963,361.051 83.065,361.753 83.581 C 362.454 84.097,363.350 84.822,363.744 85.192 C 364.138 85.562,364.790 86.075,365.193 86.331 C 365.597 86.588,366.373 87.181,366.919 87.650 C 367.465 88.118,368.341 88.815,368.867 89.199 C 369.393 89.582,369.963 90.030,370.135 90.194 C 372.570 92.523,374.564 92.778,376.579 91.017 C 376.977 90.670,378.298 88.693,378.298 88.445 C 378.298 88.364,378.487 87.943,378.719 87.511 C 379.235 86.548,379.334 84.053,378.878 83.503 C 378.599 83.166,373.910 80.836,373.512 80.836 C 373.398 80.836,372.367 80.391,371.221 79.846 C 370.075 79.301,368.175 78.475,366.998 78.009 C 365.821 77.543,364.813 77.106,364.759 77.038 C 364.619 76.862,363.597 76.408,361.175 75.445 C 360.025 74.988,358.726 74.416,358.288 74.174 C 357.850 73.932,356.763 73.454,355.873 73.111 C 354.982 72.768,353.370 72.063,352.289 71.545 C 350.366 70.624,348.206 70.169,347.785 70.597 " stroke="none" fill="#4ac9f4" fill-rule="evenodd"></path><path id="path4" d="" stroke="none" fill="#48787c" fill-rule="evenodd"></path><path id="path5" d="" stroke="none" fill="#4810d8" fill-rule="evenodd"></path><path id="path6" d="" stroke="none" fill="#4810d8" fill-rule="evenodd"></path><path id="path7" d="" stroke="none" fill="#4810d8" fill-rule="evenodd"></path><path id="path8" d="" stroke="none" fill="#4810d8" fill-rule="evenodd"></path></g></svg>